<svg width="31" height="31" viewBox="0 0 31 31" fill="none" xmlns="http://www.w3.org/2000/svg">
<path d="M21.7258 2.58337H9.27416C6.52291 2.58337 4.28833 4.83087 4.28833 7.56921V25.7688C4.28833 28.0938 5.95458 29.0755 7.99541 27.9517L14.2987 24.4513C14.9704 24.0767 16.0554 24.0767 16.7142 24.4513L23.0175 27.9517C25.0583 29.0884 26.7246 28.1067 26.7246 25.7688V7.56921C26.7117 4.83087 24.4771 2.58337 21.7258 2.58337ZM19.3879 12.5938C18.135 13.0459 16.8175 13.2784 15.5 13.2784C14.1825 13.2784 12.865 13.0459 11.6121 12.5938C11.1083 12.413 10.85 11.8575 11.0308 11.3538C11.2246 10.85 11.78 10.5917 12.2837 10.7725C14.3633 11.5217 16.6496 11.5217 18.7292 10.7725C19.2329 10.5917 19.7883 10.85 19.9692 11.3538C20.15 11.8575 19.8917 12.413 19.3879 12.5938Z" fill="white"/>
</svg>
