<svg width="25" height="25" viewBox="0 0 25 25" fill="none" xmlns="http://www.w3.org/2000/svg">
<path d="M22.6406 18.656C22.6406 19.0203 22.5597 19.3948 22.3876 19.7592C22.2155 20.1236 21.9929 20.4677 21.6993 20.7916C21.2034 21.3382 20.6568 21.7329 20.0394 21.986C19.4321 22.239 18.7742 22.3706 18.0657 22.3706C17.0333 22.3706 15.93 22.1277 14.766 21.6317C13.602 21.1357 12.4381 20.4677 11.2842 19.6276C10.1202 18.7774 9.01696 17.8361 7.96431 16.7936C6.92179 15.7409 5.98048 14.6377 5.14038 13.4838C4.31041 12.33 3.64239 11.1761 3.15655 10.0324C2.67071 8.87849 2.4278 7.77523 2.4278 6.72259C2.4278 6.03432 2.54925 5.37641 2.79217 4.76912C3.03509 4.1517 3.41971 3.58489 3.95616 3.07881C4.60394 2.44115 5.31245 2.12738 6.06145 2.12738C6.34486 2.12738 6.62826 2.18811 6.8813 2.30957C7.14446 2.43103 7.37726 2.61322 7.55945 2.87638L9.90766 6.18614C10.0898 6.43918 10.2214 6.67198 10.3125 6.89465C10.4036 7.10721 10.4542 7.31976 10.4542 7.51207C10.4542 7.75499 10.3834 7.99791 10.2417 8.23071C10.1101 8.4635 9.91778 8.70642 9.67486 8.94934L8.90562 9.74895C8.79428 9.86028 8.74367 9.99187 8.74367 10.1538C8.74367 10.2348 8.7538 10.3056 8.77404 10.3866C8.80441 10.4676 8.83477 10.5283 8.85501 10.589C9.0372 10.9231 9.35097 11.3583 9.79632 11.8846C10.2518 12.4109 10.7376 12.9474 11.264 13.4838C11.8105 14.0203 12.3368 14.5162 12.8733 14.9717C13.3996 15.417 13.8348 15.7207 14.179 15.9029C14.2296 15.9231 14.2903 15.9535 14.3612 15.9839C14.4421 16.0142 14.5231 16.0243 14.6142 16.0243C14.7863 16.0243 14.9179 15.9636 15.0292 15.8523L15.7984 15.0932C16.0515 14.8401 16.2944 14.6478 16.5272 14.5263C16.76 14.3846 16.9928 14.3138 17.2458 14.3138C17.4381 14.3138 17.6406 14.3543 17.8632 14.4454C18.0859 14.5365 18.3187 14.668 18.5718 14.8401L21.922 17.2187C22.1852 17.4009 22.3674 17.6134 22.4787 17.8665C22.5799 18.1195 22.6406 18.3726 22.6406 18.656Z" fill="white"/>
</svg>
