<svg width="30" height="30" viewBox="0 0 30 30" fill="none" xmlns="http://www.w3.org/2000/svg">
<path d="M14.5751 2.4292C7.88272 2.4292 2.4292 7.88272 2.4292 14.5751C2.4292 21.2675 7.88272 26.721 14.5751 26.721C21.2675 26.721 26.721 21.2675 26.721 14.5751C26.721 7.88272 21.2675 2.4292 14.5751 2.4292ZM19.8586 18.9112C19.6886 19.2027 19.3849 19.3606 19.0691 19.3606C18.9112 19.3606 18.7533 19.3242 18.6076 19.227L14.8423 16.98C13.9071 16.4213 13.2148 15.1946 13.2148 14.1136V9.13375C13.2148 8.63577 13.6277 8.2228 14.1257 8.2228C14.6237 8.2228 15.0367 8.63577 15.0367 9.13375V14.1136C15.0367 14.5508 15.401 15.1946 15.7776 15.4132L19.5428 17.6602C19.9801 17.9152 20.1258 18.474 19.8586 18.9112Z" fill="#610C21"/>
</svg>
