<svg width="29" height="30" viewBox="0 0 29 30" fill="none" xmlns="http://www.w3.org/2000/svg">
<path d="M19.5628 3.09048H9.43692C5.03859 3.09048 2.4165 5.71257 2.4165 10.1109V20.2247C2.4165 24.6351 5.03859 27.2572 9.43692 27.2572H19.5507C23.949 27.2572 26.5711 24.6351 26.5711 20.2367V10.1109C26.5832 5.71257 23.9611 3.09048 19.5628 3.09048ZM14.4998 19.8622C11.914 19.8622 9.8115 17.7597 9.8115 15.1738C9.8115 12.588 11.914 10.4855 14.4998 10.4855C17.0857 10.4855 19.1882 12.588 19.1882 15.1738C19.1882 17.7597 17.0857 19.8622 14.4998 19.8622ZM21.6532 8.98715C21.5928 9.13215 21.5082 9.26507 21.3994 9.3859C21.2786 9.49465 21.1457 9.57923 21.0007 9.63965C20.8557 9.70007 20.6986 9.73632 20.5415 9.73632C20.2153 9.73632 19.9132 9.61548 19.6836 9.3859C19.5748 9.26507 19.4903 9.13215 19.4298 8.98715C19.3694 8.84215 19.3332 8.68507 19.3332 8.52798C19.3332 8.3709 19.3694 8.21382 19.4298 8.06882C19.4903 7.91173 19.5748 7.7909 19.6836 7.67007C19.9615 7.39215 20.3844 7.25923 20.7711 7.34382C20.8557 7.3559 20.9282 7.38007 21.0007 7.41632C21.0732 7.44048 21.1457 7.47673 21.2182 7.52507C21.2786 7.56132 21.339 7.62173 21.3994 7.67007C21.5082 7.7909 21.5928 7.91173 21.6532 8.06882C21.7136 8.21382 21.7498 8.3709 21.7498 8.52798C21.7498 8.68507 21.7136 8.84215 21.6532 8.98715Z" fill="#610C21"/>
</svg>
