<svg width="30" height="30" viewBox="0 0 30 30" fill="none" xmlns="http://www.w3.org/2000/svg">
<path d="M25.0449 10.2633C23.7696 4.6519 18.8748 2.12555 14.5751 2.12555C14.5751 2.12555 14.5751 2.12555 14.563 2.12555C10.2754 2.12555 5.36849 4.63975 4.09317 10.2512C2.6721 16.5185 6.51021 21.8262 9.98394 25.1664C11.2714 26.4052 12.9233 27.0247 14.5751 27.0247C16.2269 27.0247 17.8788 26.4052 19.1541 25.1664C22.6279 21.8262 26.466 16.5306 25.0449 10.2633ZM14.5751 16.3484C12.4617 16.3484 10.7491 14.6358 10.7491 12.5225C10.7491 10.4091 12.4617 8.69649 14.5751 8.69649C16.6885 8.69649 18.4011 10.4091 18.4011 12.5225C18.4011 14.6358 16.6885 16.3484 14.5751 16.3484Z" fill="#610C21"/>
</svg>
