<svg width="34" height="35" viewBox="0 0 34 35" fill="none" xmlns="http://www.w3.org/2000/svg">
<path d="M30.1045 26.3746L27.767 26.9246C27.2428 27.0515 26.832 27.4464 26.7187 27.9682L26.2228 30.0414C25.9537 31.1697 24.5087 31.5223 23.7578 30.6338L19.522 25.7822C19.182 25.3873 19.3662 24.7668 19.8762 24.6399C22.3837 24.0334 24.6362 22.6372 26.2937 20.6486C26.5628 20.3242 27.0445 20.2819 27.342 20.5781L30.487 23.709C31.5637 24.7809 31.1812 26.1207 30.1045 26.3746Z" fill="#610C21"/>
<path d="M3.82547 26.3746L6.16297 26.9246C6.68714 27.0515 7.09797 27.4464 7.21131 27.9682L7.70714 30.0414C7.97631 31.1697 9.42131 31.5223 10.1721 30.6338L14.408 25.7822C14.748 25.3873 14.5638 24.7668 14.0538 24.6399C11.5463 24.0334 9.29381 22.6372 7.63631 20.6486C7.36714 20.3242 6.88547 20.2819 6.58797 20.5781L3.44297 23.709C2.36631 24.7809 2.74881 26.1207 3.82547 26.3746Z" fill="#610C21"/>
<path d="M17.0002 3.15039C11.5177 3.15039 7.0835 7.56474 7.0835 13.0227C7.0835 15.0677 7.69266 16.9435 8.741 18.5089C10.271 20.7655 12.6935 22.3592 15.5127 22.7682C15.9943 22.8528 16.4902 22.8951 17.0002 22.8951C17.5102 22.8951 18.006 22.8528 18.4877 22.7682C21.3068 22.3592 23.7293 20.7655 25.2593 18.5089C26.3077 16.9435 26.9168 15.0677 26.9168 13.0227C26.9168 7.56474 22.4827 3.15039 17.0002 3.15039ZM21.3352 12.7125L20.1593 13.883C19.961 14.0805 19.8477 14.4613 19.9185 14.7433L20.2585 16.196C20.5277 17.3384 19.9185 17.7897 18.8985 17.1832L17.4818 16.3511C17.2268 16.196 16.8018 16.196 16.5468 16.3511L15.1302 17.1832C14.1102 17.7756 13.501 17.3384 13.7702 16.196L14.1102 14.7433C14.1668 14.4754 14.0677 14.0805 13.8693 13.883L12.6652 12.7125C11.971 12.0214 12.1977 11.3303 13.161 11.1752L14.6768 10.9213C14.9318 10.879 15.2293 10.6534 15.3427 10.4277L16.1785 8.76353C16.6318 7.86091 17.3685 7.86091 17.8218 8.76353L18.6577 10.4277C18.771 10.6534 19.0685 10.879 19.3377 10.9213L20.8535 11.1752C21.8027 11.3303 22.0293 12.0214 21.3352 12.7125Z" fill="#610C21"/>
</svg>
