<svg width="24" height="25" viewBox="0 0 24 25" fill="none" xmlns="http://www.w3.org/2000/svg">
<path d="M17.56 2.67383H6.41C3.98 2.67383 2 4.65383 2 7.08383V13.5838V13.7838C2 16.2238 3.98 18.1938 6.41 18.1938H10.25C10.8 18.1938 11.25 18.6438 11.25 19.1938V20.1638C11.25 20.7138 10.8 21.1638 10.25 21.1638H7.83C7.42 21.1638 7.08 21.5038 7.08 21.9138C7.08 22.3238 7.41 22.6738 7.83 22.6738H16.18C16.59 22.6738 16.93 22.3338 16.93 21.9238C16.93 21.5138 16.59 21.1738 16.18 21.1738H13.76C13.21 21.1738 12.76 20.7238 12.76 20.1738V19.2038C12.76 18.6538 13.21 18.2038 13.76 18.2038H17.57C20.01 18.2038 21.98 16.2238 21.98 13.7938V13.5938V7.09383C21.97 4.65383 19.99 2.67383 17.56 2.67383Z" fill="#610C21"/>
</svg>
