<svg width="28" height="29" viewBox="0 0 28 29" fill="none" xmlns="http://www.w3.org/2000/svg">
<path d="M14 2.76807C10.9433 2.76807 8.45831 5.25307 8.45831 8.30973C8.45831 11.3081 10.8033 13.7347 13.86 13.8397C13.9533 13.8281 14.0466 13.8281 14.1166 13.8397C14.14 13.8397 14.1516 13.8397 14.175 13.8397C14.1866 13.8397 14.1866 13.8397 14.1983 13.8397C17.185 13.7347 19.53 11.3081 19.5416 8.30973C19.5416 5.25307 17.0566 2.76807 14 2.76807Z" fill="#610C21"/>
<path d="M19.9267 16.9431C16.6717 14.7731 11.3633 14.7731 8.08502 16.9431C6.60335 17.9347 5.78668 19.2764 5.78668 20.7114C5.78668 22.1464 6.60335 23.4764 8.07335 24.4564C9.70668 25.5531 11.8533 26.1014 14 26.1014C16.1467 26.1014 18.2933 25.5531 19.9267 24.4564C21.3967 23.4647 22.2134 22.1347 22.2134 20.6881C22.2017 19.2531 21.3967 17.9231 19.9267 16.9431Z" fill="#610C21"/>
</svg>
