<svg width="32" height="32" viewBox="0 0 32 32" fill="none" xmlns="http://www.w3.org/2000/svg">
<path fill-rule="evenodd" clip-rule="evenodd" d="M32 16C32 24.8366 24.8366 32 16 32C7.16344 32 0 24.8366 0 16C0 7.16344 7.16344 0 16 0C24.8366 0 32 7.16344 32 16ZM16.0001 4.45276C13.0584 4.45276 10.6668 6.84686 10.6668 9.79172C10.6668 12.6804 12.9236 15.0183 15.8654 15.1194C15.9552 15.1082 16.045 15.1082 16.1124 15.1194H16.1686H16.191C19.0654 15.0183 21.3222 12.6804 21.3335 9.79172C21.3335 6.84686 18.9419 4.45276 16.0001 4.45276ZM9.5987 19.3873C13.1467 17.2413 18.8916 17.2413 22.4144 19.3873C24.0053 20.3565 24.8765 21.6718 24.8891 23.0909C24.8891 24.5216 24.0053 25.8369 22.4144 26.8176C20.6467 27.9022 18.3234 28.4444 16.0002 28.4444C13.677 28.4444 11.3538 27.9022 9.58607 26.8176C7.99517 25.8484 7.11133 24.5331 7.11133 23.114C7.11133 21.6948 7.99517 20.368 9.5987 19.3873Z" fill="white"/>
</svg>
