<svg width="29" height="29" viewBox="0 0 29 29" fill="none" xmlns="http://www.w3.org/2000/svg">
<path d="M20.5417 4.22919H8.45835C4.83335 4.22919 2.41669 6.04169 2.41669 10.2709V18.7292C2.41669 22.9584 4.83335 24.7709 8.45835 24.7709H20.5417C24.1667 24.7709 26.5834 22.9584 26.5834 18.7292V10.2709C26.5834 6.04169 24.1667 4.22919 20.5417 4.22919ZM21.1096 11.5879L17.3275 14.6088C16.53 15.2492 15.515 15.5634 14.5 15.5634C13.485 15.5634 12.4579 15.2492 11.6725 14.6088L7.89044 11.5879C7.50377 11.2738 7.44335 10.6938 7.74544 10.3071C8.0596 9.92044 8.62752 9.84794 9.01419 10.1621L12.7963 13.1829C13.7146 13.92 15.2734 13.92 16.1917 13.1829L19.9738 10.1621C20.3604 9.84794 20.9404 9.90835 21.2425 10.3071C21.5567 10.6938 21.4963 11.2738 21.1096 11.5879Z" fill="white"/>
</svg>
