<svg width="24" height="24" viewBox="0 0 24 24" fill="none" xmlns="http://www.w3.org/2000/svg">
<path fill-rule="evenodd" clip-rule="evenodd" d="M12 24C15.1826 24 18.2348 22.7357 20.4853 20.4853C22.7357 18.2348 24 15.1826 24 12C24 8.8174 22.7357 5.76516 20.4853 3.51472C18.2348 1.26428 15.1826 0 12 0C8.8174 0 5.76516 1.26428 3.51472 3.51472C1.26428 5.76516 0 8.8174 0 12C0 15.1826 1.26428 18.2348 3.51472 20.4853C5.76516 22.7357 8.8174 24 12 24ZM13.7143 7.71429C13.7143 8.16894 13.5337 8.60498 13.2122 8.92647C12.8907 9.24796 12.4547 9.42857 12 9.42857C11.5453 9.42857 11.1093 9.24796 10.7878 8.92647C10.4663 8.60498 10.2857 8.16894 10.2857 7.71429C10.2857 7.25963 10.4663 6.82359 10.7878 6.5021C11.1093 6.18061 11.5453 6 12 6C12.4547 6 12.8907 6.18061 13.2122 6.5021C13.5337 6.82359 13.7143 7.25963 13.7143 7.71429ZM12 11.5714C12.341 11.5714 12.668 11.7069 12.9091 11.948C13.1503 12.1891 13.2857 12.5162 13.2857 12.8571V17.1429C13.2857 17.4838 13.1503 17.8109 12.9091 18.052C12.668 18.2931 12.341 18.4286 12 18.4286C11.659 18.4286 11.332 18.2931 11.0909 18.052C10.8497 17.8109 10.7143 17.4838 10.7143 17.1429V12.8571C10.7143 12.5162 10.8497 12.1891 11.0909 11.948C11.332 11.7069 11.659 11.5714 12 11.5714Z" fill="#610C21"/>
</svg>
