<svg width="20" height="24" viewBox="0 0 20 24" fill="none" xmlns="http://www.w3.org/2000/svg">
<path d="M19.9167 16.6667V19.5833C19.9167 21.835 18.0851 23.6667 15.8334 23.6667H4.16674C1.91507 23.6667 0.0834045 21.835 0.0834045 19.5833V18.825C0.0834045 16.9933 1.57674 15.5 3.4084 15.5H18.7501C19.3917 15.5 19.9167 16.025 19.9167 16.6667Z" fill="white"/>
<path d="M14.0834 0.333351H5.91674C1.25007 0.333351 0.0834045 1.50002 0.0834045 6.16668V15.01C0.970071 14.2284 2.13674 13.75 3.4084 13.75H18.7501C19.3917 13.75 19.9167 13.225 19.9167 12.5834V6.16668C19.9167 1.50002 18.7501 0.333351 14.0834 0.333351ZM11.1667 10.5417H5.33341C4.85507 10.5417 4.45841 10.145 4.45841 9.66668C4.45841 9.18835 4.85507 8.79168 5.33341 8.79168H11.1667C11.6451 8.79168 12.0417 9.18835 12.0417 9.66668C12.0417 10.145 11.6451 10.5417 11.1667 10.5417ZM14.6667 6.45835H5.33341C4.85507 6.45835 4.45841 6.06168 4.45841 5.58335C4.45841 5.10502 4.85507 4.70835 5.33341 4.70835H14.6667C15.1451 4.70835 15.5417 5.10502 15.5417 5.58335C15.5417 6.06168 15.1451 6.45835 14.6667 6.45835Z" fill="white"/>
</svg>
