<svg width="21" height="24" viewBox="0 0 21 24" fill="none" xmlns="http://www.w3.org/2000/svg">
<path d="M16.3212 0H4.66667C2.09154 0 0 2.08733 0 4.63051V21.5331C0 23.6924 1.55959 24.6041 3.46978 23.5604L9.3696 20.3094C9.99827 19.9616 11.0138 19.9616 11.6304 20.3094L17.5302 23.5604C19.4404 24.6161 21 23.7044 21 21.5331V4.63051C20.9879 2.08733 18.8964 0 16.3212 0ZM14.133 9.297C12.9603 9.71686 11.7271 9.93279 10.494 9.93279C9.26079 9.93279 8.02763 9.71686 6.85492 9.297C6.38342 9.12905 6.14162 8.61322 6.31088 8.14537C6.49223 7.67752 7.01209 7.4376 7.48359 7.60555C9.43005 8.30132 11.5699 8.30132 13.5164 7.60555C13.9879 7.4376 14.5078 7.67752 14.677 8.14537C14.8463 8.61322 14.6045 9.12905 14.133 9.297Z" fill="#610C21"/>
</svg>
