<svg width="29" height="29" viewBox="0 0 29 29" fill="none" xmlns="http://www.w3.org/2000/svg">
<path d="M20.2396 4.30169V2.41669C20.2396 1.92127 19.8288 1.51044 19.3333 1.51044C18.8379 1.51044 18.4271 1.92127 18.4271 2.41669V4.22919H10.5729V2.41669C10.5729 1.92127 10.1621 1.51044 9.66668 1.51044C9.17126 1.51044 8.76043 1.92127 8.76043 2.41669V4.30169C5.49793 4.60377 3.91501 6.54919 3.67335 9.4371C3.64918 9.78752 3.93918 10.0775 4.27751 10.0775H24.7225C25.0729 10.0775 25.3629 9.77544 25.3267 9.4371C25.085 6.54919 23.5021 4.60377 20.2396 4.30169Z" fill="#610C21"/>
<path d="M24.1667 11.89H4.83333C4.16875 11.89 3.625 12.4338 3.625 13.0983V20.5417C3.625 24.1667 5.4375 26.5833 9.66667 26.5833H19.3333C23.5625 26.5833 25.375 24.1667 25.375 20.5417V13.0983C25.375 12.4338 24.8313 11.89 24.1667 11.89ZM11.1288 22.0038C11.0079 22.1125 10.875 22.1971 10.73 22.2575C10.585 22.3179 10.4279 22.3542 10.2708 22.3542C10.1138 22.3542 9.95667 22.3179 9.81167 22.2575C9.66667 22.1971 9.53375 22.1125 9.41292 22.0038C9.19542 21.7742 9.0625 21.46 9.0625 21.1458C9.0625 20.8317 9.19542 20.5175 9.41292 20.2879C9.53375 20.1792 9.66667 20.0946 9.81167 20.0342C10.1017 19.9133 10.44 19.9133 10.73 20.0342C10.875 20.0946 11.0079 20.1792 11.1288 20.2879C11.3463 20.5175 11.4792 20.8317 11.4792 21.1458C11.4792 21.46 11.3463 21.7742 11.1288 22.0038ZM11.3825 17.3758C11.3221 17.5208 11.2375 17.6538 11.1288 17.7746C11.0079 17.8833 10.875 17.9679 10.73 18.0283C10.585 18.0888 10.4279 18.125 10.2708 18.125C10.1138 18.125 9.95667 18.0888 9.81167 18.0283C9.66667 17.9679 9.53375 17.8833 9.41292 17.7746C9.30417 17.6538 9.21958 17.5208 9.15917 17.3758C9.09875 17.2308 9.0625 17.0738 9.0625 16.9167C9.0625 16.7596 9.09875 16.6025 9.15917 16.4575C9.21958 16.3125 9.30417 16.1796 9.41292 16.0588C9.53375 15.95 9.66667 15.8654 9.81167 15.805C10.1017 15.6842 10.44 15.6842 10.73 15.805C10.875 15.8654 11.0079 15.95 11.1288 16.0588C11.2375 16.1796 11.3221 16.3125 11.3825 16.4575C11.4429 16.6025 11.4792 16.7596 11.4792 16.9167C11.4792 17.0738 11.4429 17.2308 11.3825 17.3758ZM15.3579 17.7746C15.2371 17.8833 15.1042 17.9679 14.9592 18.0283C14.8142 18.0888 14.6571 18.125 14.5 18.125C14.3429 18.125 14.1858 18.0888 14.0408 18.0283C13.8958 17.9679 13.7629 17.8833 13.6421 17.7746C13.4246 17.545 13.2917 17.2308 13.2917 16.9167C13.2917 16.6025 13.4246 16.2883 13.6421 16.0588C13.7629 15.95 13.8958 15.8654 14.0408 15.805C14.3308 15.6721 14.6692 15.6721 14.9592 15.805C15.1042 15.8654 15.2371 15.95 15.3579 16.0588C15.5754 16.2883 15.7083 16.6025 15.7083 16.9167C15.7083 17.2308 15.5754 17.545 15.3579 17.7746Z" fill="#610C21"/>
</svg>
