<svg width="24" height="23" viewBox="0 0 24 23" fill="none" xmlns="http://www.w3.org/2000/svg">
<path d="M12 1.8728C6.48 1.8728 2 6.06787 2 11.2368C2 16.4057 6.48 20.6008 12 20.6008C17.52 20.6008 22 16.4057 22 11.2368C22 6.06787 17.52 1.8728 12 1.8728ZM12.33 15.9188C12.15 15.975 11.84 15.975 11.66 15.9188C10.1 15.4225 6.6 13.3343 6.6 9.79474C6.6 8.23095 7.94 6.96681 9.6 6.96681C10.58 6.96681 11.45 7.40692 12 8.09986C12.54 7.41629 13.42 6.96681 14.4 6.96681C16.06 6.96681 17.4 8.23095 17.4 9.79474C17.4 13.3343 13.9 15.4225 12.33 15.9188Z" fill="#EF6352"/>
</svg>
