<svg width="21" height="20" viewBox="0 0 21 20" fill="none" xmlns="http://www.w3.org/2000/svg">
<path fill-rule="evenodd" clip-rule="evenodd" d="M10.5 20C13.2848 20 15.9555 18.9464 17.9246 17.0711C19.8938 15.1957 21 12.6522 21 10C21 7.34784 19.8938 4.8043 17.9246 2.92893C15.9555 1.05357 13.2848 0 10.5 0C7.71523 0 5.04451 1.05357 3.07538 2.92893C1.10625 4.8043 0 7.34784 0 10C0 12.6522 1.10625 15.1957 3.07538 17.0711C5.04451 18.9464 7.71523 20 10.5 20ZM12 6.42857C12 6.80745 11.842 7.17081 11.5607 7.43872C11.2794 7.70663 10.8978 7.85714 10.5 7.85714C10.1022 7.85714 9.72065 7.70663 9.43934 7.43872C9.15804 7.17081 9 6.80745 9 6.42857C9 6.04969 9.15804 5.68633 9.43934 5.41842C9.72065 5.15051 10.1022 5 10.5 5C10.8978 5 11.2794 5.15051 11.5607 5.41842C11.842 5.68633 12 6.04969 12 6.42857ZM10.5 9.64286C10.7984 9.64286 11.0845 9.75574 11.2955 9.95667C11.5065 10.1576 11.625 10.4301 11.625 10.7143V14.2857C11.625 14.5699 11.5065 14.8424 11.2955 15.0433C11.0845 15.2443 10.7984 15.3571 10.5 15.3571C10.2016 15.3571 9.91548 15.2443 9.7045 15.0433C9.49353 14.8424 9.375 14.5699 9.375 14.2857V10.7143C9.375 10.4301 9.49353 10.1576 9.7045 9.95667C9.91548 9.75574 10.2016 9.64286 10.5 9.64286Z" fill="#610C21"/>
</svg>
