<svg width="22" height="25" viewBox="0 0 22 25" fill="none" xmlns="http://www.w3.org/2000/svg">
<path d="M19.5251 2.7574L12.3611 0.195847C11.6186 -0.0652823 10.4073 -0.0652823 9.66484 0.195847L2.50087 2.7574C1.12018 3.25479 0 4.79669 0 6.20182V16.2739C0 17.2811 0.690346 18.6117 1.537 19.2085L8.70096 24.3192C9.96442 25.2269 12.0355 25.2269 13.2989 24.3192L20.4629 19.2085C21.3095 18.5992 21.9999 17.2811 21.9999 16.2739V6.20182C22.0129 4.79669 20.8927 3.25479 19.5251 2.7574ZM11.9834 13.5756V16.8459C11.9834 17.3558 11.5405 17.7785 11.0065 17.7785C10.4724 17.7785 10.0296 17.3558 10.0296 16.8459V13.5756C8.71399 13.1777 7.75011 12.0088 7.75011 10.6286C7.75011 8.91258 9.20895 7.5199 11.0065 7.5199C12.804 7.5199 14.2628 8.91258 14.2628 10.6286C14.2628 12.0213 13.2989 13.1777 11.9834 13.5756Z" fill="#610C21"/>
</svg>
