<?xml version="1.0" encoding="UTF-8"?>
<svg id="Layer_2" data-name="Layer 2" xmlns="http://www.w3.org/2000/svg" viewBox="0 0 27.25 28.97">
  <defs>
    <style>
      .cls-1 {
        fill: #fff;
      }
    </style>
  </defs>
  <g id="Layer_1-2" data-name="Layer 1">
    <g>
      <path class="cls-1" d="M20.62,19.75c1-.6,2.2,0,2.2,1.2v1.9c0,1.8-1.4,3.8-3.2,4.4l-4.6,1.5c-.8.3-2.1.3-2.9,0l-4.6-1.5c-1.7-.6-3.2-2.6-3.2-4.4v-1.9c0-1.1,1.3-1.8,2.2-1.2l3,1.9c1.1.8,2.6,1.1,4,1.1s2.9-.4,4-1.1l2.9-1.9h.2Z"/>
      <path class="cls-1" d="M25.23,6.45L16.52.75c-1.6-1-4.1-1-5.7,0L2.03,6.45c-2.7,1.8-2.7,5.9,0,7.7l2.3,1.5,6.4,4.2c1.6,1,4.1,1,5.7,0l6.4-4.2,2-1.3v4.4c0,.6.5,1.1,1.1,1.1s1.1-.5,1.1-1.1v-7.1c.6-1.9,0-4-1.8-5.2Z"/>
    </g>
  </g>
</svg>