<svg width="25" height="25" viewBox="0 0 25 25" fill="none" xmlns="http://www.w3.org/2000/svg">
<path d="M14.1996 1.94078L16.3114 6.19921C16.5994 6.79201 17.3673 7.3606 18.0152 7.46949L21.8428 8.11067C24.2905 8.522 24.8664 10.3125 23.1026 12.0788L20.127 15.079C19.623 15.5871 19.3471 16.5671 19.503 17.2687L20.3549 20.9828C21.0269 23.9225 19.479 25.0597 16.8993 23.5233L13.3117 21.382C12.6638 20.9949 11.5959 20.9949 10.936 21.382L7.34839 23.5233C4.78067 25.0597 3.22084 23.9104 3.89277 20.9828L4.74467 17.2687C4.90066 16.5671 4.62469 15.5871 4.12074 15.079L1.14507 12.0788C-0.606735 10.3125 -0.0427972 8.522 2.40493 8.11067L6.23251 7.46949C6.86844 7.3606 7.63635 6.79201 7.92432 6.19921L10.0361 1.94078C11.188 -0.369908 13.0598 -0.369908 14.1996 1.94078Z" fill="#610C21"/>
</svg>
