<svg width="29" height="30" viewBox="0 0 29 30" fill="none" xmlns="http://www.w3.org/2000/svg">
<path d="M24.2876 11.525C22.1005 11.525 21.2063 9.92501 22.2938 7.96251C22.9222 6.82501 22.5476 5.37501 21.448 4.72501L19.3576 3.48751C18.403 2.90001 17.1705 3.25001 16.6026 4.23751L16.4697 4.47501C15.3822 6.43751 13.5938 6.43751 12.4942 4.47501L12.3613 4.23751C11.8176 3.25001 10.5851 2.90001 9.6305 3.48751L7.54008 4.72501C6.4405 5.37501 6.06591 6.83751 6.69425 7.97501C7.79383 9.92501 6.89966 11.525 4.71258 11.525C3.45591 11.525 2.41675 12.5875 2.41675 13.9V16.1C2.41675 17.4 3.44383 18.475 4.71258 18.475C6.89966 18.475 7.79383 20.075 6.69425 22.0375C6.06591 23.175 6.4405 24.625 7.54008 25.275L9.6305 26.5125C10.5851 27.1 11.8176 26.75 12.3855 25.7625L12.5184 25.525C13.6059 23.5625 15.3942 23.5625 16.4938 25.525L16.6267 25.7625C17.1947 26.75 18.4272 27.1 19.3818 26.5125L21.4722 25.275C22.5717 24.625 22.9463 23.1625 22.318 22.0375C21.2184 20.075 22.1126 18.475 24.2997 18.475C25.5563 18.475 26.5955 17.4125 26.5955 16.1V13.9C26.5834 12.6 25.5563 11.525 24.2876 11.525ZM14.5001 19.0625C12.3372 19.0625 10.573 17.2375 10.573 15C10.573 12.7625 12.3372 10.9375 14.5001 10.9375C16.663 10.9375 18.4272 12.7625 18.4272 15C18.4272 17.2375 16.663 19.0625 14.5001 19.0625Z" fill="#610C21"/>
</svg>
