<svg width="23" height="23" viewBox="0 0 23 23" fill="none" xmlns="http://www.w3.org/2000/svg">
<path d="M18.0714 14.375C16.9108 14.375 15.844 14.7262 15.0019 15.3136L9.74029 12.4362C9.89611 11.8195 9.89611 11.1805 9.74029 10.5637L15.0019 7.68631C15.844 8.27376 16.9108 8.625 18.0714 8.625C20.7934 8.625 23 6.69421 23 4.3125C23 1.93079 20.7934 0 18.0714 0C15.3495 0 13.1429 1.93079 13.1429 4.3125C13.1429 4.63405 13.1834 4.94725 13.2597 5.24872L7.99815 8.12614C7.15603 7.53874 6.08925 7.1875 4.92857 7.1875C2.20661 7.1875 0 9.11829 0 11.5C0 13.8817 2.20661 15.8125 4.92857 15.8125C6.08925 15.8125 7.15603 15.4613 7.99815 14.8739L13.2597 17.7513C13.1819 18.0587 13.1428 18.3726 13.1429 18.6875C13.1429 21.0692 15.3495 23 18.0714 23C20.7934 23 23 21.0692 23 18.6875C23 16.3058 20.7934 14.375 18.0714 14.375Z" fill="#610C21"/>
</svg>
