<svg width="18" height="19" viewBox="0 0 18 19" fill="none" xmlns="http://www.w3.org/2000/svg">
<path d="M14.1429 11.875C13.2345 11.875 12.3996 12.1652 11.7406 12.6504L7.62284 10.2734C7.74478 9.76394 7.74478 9.23603 7.62284 8.72657L11.7406 6.34956C12.3996 6.83484 13.2345 7.125 14.1429 7.125C16.2731 7.125 18 5.53 18 3.5625C18 1.595 16.2731 0 14.1429 0C12.0126 0 10.2857 1.595 10.2857 3.5625C10.2857 3.82813 10.3175 4.08686 10.3772 4.3359L6.25942 6.7129C5.60037 6.22766 4.7655 5.9375 3.85714 5.9375C1.72692 5.9375 0 7.5325 0 9.5C0 11.4675 1.72692 13.0625 3.85714 13.0625C4.7655 13.0625 5.60037 12.7723 6.25942 12.2871L10.3772 14.6641C10.3163 14.9181 10.2856 15.1774 10.2857 15.4375C10.2857 17.405 12.0126 19 14.1429 19C16.2731 19 18 17.405 18 15.4375C18 13.47 16.2731 11.875 14.1429 11.875Z" fill="#610C21"/>
</svg>
