<svg width="24" height="23" viewBox="0 0 24 23" fill="none" xmlns="http://www.w3.org/2000/svg">
<path d="M12 21.8021C6.07 21.8021 1.25 17.1829 1.25 11.5C1.25 5.81707 6.07 1.19791 12 1.19791C17.93 1.19791 22.75 5.81707 22.75 11.5C22.75 17.1829 17.93 21.8021 12 21.8021ZM12 2.63541C6.9 2.63541 2.75 6.61249 2.75 11.5C2.75 16.3875 6.9 20.3646 12 20.3646C17.1 20.3646 21.25 16.3875 21.25 11.5C21.25 6.61249 17.1 2.63541 12 2.63541Z" fill="#EF6352"/>
<path d="M11.9999 17.4896C11.7899 17.4896 11.5899 17.4609 11.4199 17.4034C9.26986 16.7038 5.85986 14.1929 5.85986 10.4554C5.85986 8.4621 7.53986 6.84253 9.60986 6.84253C10.5099 6.84253 11.3399 7.13961 12.0099 7.67627C12.6799 7.13961 13.5199 6.84253 14.3999 6.84253C16.4699 6.84253 18.1499 8.4621 18.1499 10.4554C18.1499 14.1834 14.7399 16.6942 12.5799 17.4034C12.4099 17.4609 12.1999 17.4896 11.9999 17.4896ZM9.59987 8.28959C8.35987 8.28959 7.34987 9.26711 7.34987 10.465C7.34987 13.8096 10.7199 15.6688 11.8999 16.0521C11.9399 16.0617 12.0399 16.0617 12.0799 16.0521C13.2599 15.6688 16.6299 13.8096 16.6299 10.465C16.6299 9.26711 15.6199 8.28959 14.3799 8.28959C13.6799 8.28959 13.0099 8.61543 12.5899 9.16168C12.3099 9.52585 11.6699 9.52585 11.3899 9.16168C10.9699 8.60585 10.3199 8.28959 9.59987 8.28959Z" fill="#EF6352"/>
</svg>
