<svg width="27" height="28" viewBox="0 0 27 28" fill="none" xmlns="http://www.w3.org/2000/svg">
<path d="M17.7749 3.36124C17.3136 2.89999 16.5149 3.21499 16.5149 3.85624V7.78249C16.5149 9.42499 17.9099 10.7862 19.6086 10.7862C20.6774 10.7975 22.1624 10.7975 23.4336 10.7975C24.0749 10.7975 24.4124 10.0437 23.9624 9.59374C22.3424 7.96249 19.4399 5.02624 17.7749 3.36124Z" fill="#610C21"/>
<path d="M23.0625 12.3387H19.8113C17.145 12.3387 14.9738 10.1675 14.9738 7.50125V4.25C14.9738 3.63125 14.4675 3.125 13.8488 3.125H9.07875C5.61375 3.125 2.8125 5.375 2.8125 9.39125V19.3588C2.8125 23.375 5.61375 25.625 9.07875 25.625H17.9213C21.3863 25.625 24.1875 23.375 24.1875 19.3588V13.4637C24.1875 12.845 23.6813 12.3387 23.0625 12.3387ZM12.9375 20.8438H8.4375C7.97625 20.8438 7.59375 20.4612 7.59375 20C7.59375 19.5388 7.97625 19.1562 8.4375 19.1562H12.9375C13.3987 19.1562 13.7812 19.5388 13.7812 20C13.7812 20.4612 13.3987 20.8438 12.9375 20.8438ZM15.1875 16.3438H8.4375C7.97625 16.3438 7.59375 15.9612 7.59375 15.5C7.59375 15.0388 7.97625 14.6562 8.4375 14.6562H15.1875C15.6487 14.6562 16.0312 15.0388 16.0312 15.5C16.0312 15.9612 15.6487 16.3438 15.1875 16.3438Z" fill="#610C21"/>
</svg>
