<?xml version="1.0" encoding="UTF-8"?>
<svg id="Layer_2" data-name="Layer 2" xmlns="http://www.w3.org/2000/svg" viewBox="0 0 946.37 414.94">
  <defs>
    <style>
      .cls-1 {
        fill: #004a38;
      }

      .cls-2 {
        fill: #610c21;
      }
    </style>
  </defs>
  <g id="Layer_1-2" data-name="Layer 1">
    <g>
      <path class="cls-2" d="M539.64,234.02c-39.37.07-68.06.1-69.87.11-.23,0-.93.02-1.7-.33-.89-.4-1.48-1.12-2.13-1.93-30.56-38.42-61.1-76.85-91.75-115.19-1.87-2.33-2.54-4.53-2.54-7.41.08-35.28.09-70.57-.03-105.85C371.61.53,372.42,0,375.14,0c154.95.07,309.9.08,464.84.03,14.22,0,28.25.93,41.71,5.93,25.16,9.34,42.17,27.2,52.89,51.32,10.51,23.65,13.17,48.58,11.16,74.16-1.5,19.16-6.11,37.48-15.57,54.32-16.02,28.53-40.28,44.65-73.02,47.82-5.53.54-11.05.48-16.57.48-92.1.02-184.19.02-276.29.01-.96,0-1.91-.05-2.87-.08-.05-.17-.04-.35.01-.52,4.24-.35,8.42-1.1,12.57-2.01,55.8-12.33,92.11-69.07,79.71-124.56-12.54-56.15-65.44-91.47-122.04-81.48-55.78,9.84-94.02,63.73-85.04,119.82,2.4,14.97,7.55,26.22,10.36,31.64,15.17,29.19,43.27,48.35,71.02,54.74,4.82,1.11,8.88,1.66,11.61,1.95v.45ZM713.17,116.92c0,33.26.03,66.53-.02,99.79,0,6.16,2.21,11.02,7.67,14.01,5.44,2.97,10.71,2.31,15.93-1.04,51.36-33,102.77-65.95,154.15-98.92,1.87-1.2,3.77-2.4,5.21-4.15,6.11-7.43,4.39-16.98-4.39-22.62-51.89-33.36-103.83-66.65-155.75-99.96-2.67-1.71-5.56-2.62-8.75-2.37-8.71.68-14.03,6.74-14.04,16.1-.02,33.05,0,66.1,0,99.16ZM661.42,63.81c16.14.01,29.06-11.97,29.24-28.57.17-15.67-11.08-28.89-28.63-29.19-15.96-.27-28.82,11.99-29.12,28.72-.28,15.78,12.79,28.9,28.51,29.03Z"/>
      <path class="cls-2" d="M371.94,171.18c0,16.69,0,33.37,0,50.06,0,8.66-4.22,12.83-12.94,12.83-31.05,0-62.11-.04-93.16.05-4.66.01-7.97-1.65-10.75-5.47-29.47-40.42-59.03-80.79-88.67-121.08-1.48-2.01-1.18-3.9-1.18-5.93-.02-29.23-.01-58.45-.01-87.68,0-.85-.03-1.7,0-2.55.27-6.7,4.65-11.29,11.31-11.3,32.86-.07,65.72-.04,98.58-.03,3.93,0,6.75,1.93,9.13,4.98,28.27,36.29,56.54,72.58,84.96,108.76,2.06,2.62,2.82,5.06,2.79,8.27-.13,16.37-.06,32.73-.06,49.1Z"/>
      <path class="cls-2" d="M0,116.84c0-32.08,0-64.17,0-96.25C0,7.04,7.02.06,20.66.06c15.52,0,31.04.03,46.56-.04,1.83,0,3.13.42,4.4,1.83,30,33.18,60.05,66.32,90.11,99.45,1.07,1.17,1.49,2.33,1.49,3.94-.05,41.75-.07,83.5.02,125.25,0,2.83-.61,3.65-3.57,3.64-46.46-.1-92.91-.07-139.37-.08-12.99,0-20.3-7.32-20.3-20.34,0-32.3,0-64.59,0-96.89Z"/>
      <path class="cls-1" d="M480.42,248.32c1.78,0,2.82,0,3.86,0,38.06,0,76.13-.23,114.19.07,30.85.24,60.48,15.97,72.85,47.8,9.92,25.53,10.85,50.9-3.35,75.4-9.77,16.86-24.62,27.79-42.31,35.22-8.14,3.42-16.6,5.83-25.24,7.62-4.52.94-9.12.26-13.68.46-1.17.05-1.69-.66-2.21-1.5-13.09-21.1-26.19-42.19-39.27-63.29-.05-.07-.02-.2-.04-.6.96-.07,1.95-.19,2.94-.21,16.05-.3,32.1-.56,48.16-.9,7.78-.16,12.74-3.71,15.56-10.9,2.73-6.97,1.2-14.98-3.82-19.76-3.48-3.32-7.86-4-12.39-3.96-21.58.21-43.17.45-64.75.79-2.26.04-3.61-.59-4.95-2.46-14.4-20.25-28.91-40.42-43.39-60.61-.61-.85-1.18-1.72-2.17-3.17Z"/>
      <path class="cls-1" d="M299.73,335.95c-1.99,1.3-3.75,2.18-5.85,2.25-4.01.12-7.26-1.73-8.72-5.12-1.51-3.51-.69-7.73,2-10.26,2.63-2.47,6.99-3.04,10.38-1.39.93.45,1.95,2.16,2.74-.42.24-.78,1.69-.25,1.67,1.12-.08,5.83.03,11.66-.29,17.47-.17,3.17-2.93,5.56-6.05,6.08-4.48.75-8.44-.59-9.82-3.43-.27-.56-1.16-1.3-.29-1.95.89-.66,1.46.04,2.07.74,2.31,2.66,5.54,3.54,8.5,2.28,3.09-1.31,3.97-3.85,3.65-7.38ZM293.28,336.13c3.79.04,6.94-3.04,6.93-6.78,0-3.7-3.21-6.83-6.95-6.8-3.6.03-6.71,3.07-6.8,6.64-.1,3.64,3.11,6.9,6.83,6.94Z"/>
      <path class="cls-1" d="M401.82,336.03c-1.85,1.01-3.51,2.06-5.6,2.15-4.17.17-7.51-1.66-8.99-5.18-1.49-3.54-.64-7.72,2.08-10.24,2.65-2.45,6.98-2.94,10.41-1.34.67.31,1.98,2.69,2.4-.3.02-.17.72-.34,1.1-.33.67.01.83.54.82,1.1-.14,6.14.61,12.33-.42,18.4-.53,3.15-3,5.1-6.3,5.41-3.56.33-7.11.27-9.32-3.24-.35-.56-1.35-1.47-.33-2.2.88-.62,1.44.15,2.03.85,2.21,2.6,5.61,3.47,8.54,2.18,3.07-1.35,3.93-3.89,3.57-7.26ZM395.6,336.13c3.76-.06,6.86-3.28,6.72-6.99-.14-3.59-3.24-6.57-6.86-6.58-3.72-.01-6.95,3.19-6.91,6.85.04,3.66,3.31,6.78,7.05,6.72Z"/>
      <path class="cls-1" d="M446.4,336.06c-5.02,2.94-9.46,2.79-12.58-.25-3.04-2.96-3.52-8.19-1.08-11.68,2.48-3.53,7.61-4.67,11.69-2.67.74.36,1.89,2.45,2.45-.39.13-.66,1.83-.63,1.81.87-.09,6.04.55,12.11-.35,18.1-.48,3.19-2.83,5.24-6.11,5.62-3.65.42-7.32.41-9.59-3.26-.35-.56-1.35-1.49-.26-2.18.89-.56,1.43.24,2.02.94,2.14,2.56,5.63,3.37,8.57,2.11,2.66-1.14,3.67-3.22,3.42-7.22ZM440.26,322.56c-3.73-.07-7,3.04-7.04,6.72-.04,3.52,3.04,6.72,6.6,6.85,3.8.14,7.03-2.8,7.17-6.55.14-3.68-3-6.95-6.72-7.03Z"/>
      <path class="cls-1" d="M341.53,335.87c-4.82,3.23-9.71,3.06-12.9-.31-2.89-3.05-3.16-8.39-.6-11.71,3.02-3.92,7.57-4.32,13.85-1.08,0-4.52-.03-8.94.02-13.36,0-.79-.56-2.15,1.1-2.03,1.35.1.85,1.26.85,1.98.04,8.9.03,17.79,0,26.69,0,.71.5,1.82-.92,1.93-1.66.13-.69-1.44-1.4-2.1ZM335.22,322.55c-3.79-.04-6.88,3.02-6.87,6.8,0,3.64,2.96,6.67,6.58,6.77,3.86.11,6.94-2.8,7-6.62.06-3.79-2.95-6.92-6.71-6.96Z"/>
      <path class="cls-1" d="M503.98,335.73c0,2.98.03,5.63-.02,8.28-.01.74.4,1.86-1.02,1.84-1.16-.01-.95-.92-.95-1.61-.01-7.32-.01-14.63,0-21.95,0-.7-.19-1.55,1-1.54,1.57,0,.59,1.53,1.26,2.06,5.19-3.24,10.06-3.04,13.24.54,2.92,3.29,2.94,8.67.04,11.96-3.19,3.62-7.97,3.85-13.54.42ZM517.54,329.45c.05-3.81-2.97-6.89-6.76-6.9-3.64-.01-6.71,2.92-6.83,6.54-.13,3.73,2.92,6.97,6.65,7.06,3.83.1,6.89-2.87,6.94-6.7Z"/>
      <path class="cls-1" d="M238.52,329.15c-.15-.82-.11-1.71,0-2.54.24-1.93-.44-5.61.45-5.51,3.05.36,6.39-2.06,9.14.62.78.76,1.13.62,2.01.06,4.94-3.14,9.49-.74,9.62,5.01.07,3.18.02,6.37,0,9.56,0,.7.19,1.59-.97,1.6-1.12,0-1.05-.82-1.05-1.57,0-3.08-.02-6.16,0-9.24.02-2.54-.8-4.4-3.68-4.55-2.66-.13-3.83,1.22-3.9,4.6-.07,3.08,0,6.16-.03,9.24,0,.71.13,1.57-1.05,1.53-1.19-.04-.94-.92-.95-1.61-.02-3.19,0-6.37-.02-9.56-.01-2.49-1.13-4.13-3.75-4.18-2.67-.05-3.7,1.7-3.83,4.12-.05.85.11,1.72-.04,2.54-.51,2.87,1.18,5.97-.9,8.66-2.32-2.7-.54-5.89-1.06-8.81Z"/>
      <path class="cls-1" d="M280.9,329.38c0,2.34-.01,4.67,0,7.01,0,1.17-1.12,2.26-1.52,1.38-1.19-2.6-2.27-.72-3.32-.27-3.85,1.65-8.49.55-10.93-2.67-2.44-3.22-2.33-8.15.25-11.23,2.59-3.09,7.25-3.99,11.04-2.23.81.38,1.98,2.59,2.73-.33.18-.7,1.75-.45,1.75,1.02,0,2.44,0,4.88,0,7.33ZM272.4,336.13c3.76-.04,6.87-3.24,6.76-6.95-.11-3.58-3.2-6.59-6.81-6.62-3.73-.03-6.97,3.14-6.95,6.81.01,3.66,3.27,6.8,7.01,6.76Z"/>
      <path class="cls-1" d="M364.49,329.38c0,2.34-.01,4.67,0,7.01,0,1.17-1.12,2.26-1.53,1.37-1.19-2.59-2.26-.72-3.32-.27-3.86,1.66-8.49.55-10.93-2.68-2.43-3.22-2.32-8.15.25-11.23,2.59-3.09,7.25-3.98,11.04-2.22.82.38,1.98,2.54,2.73-.34.19-.71,1.75-.44,1.75,1.03,0,2.44,0,4.88,0,7.33ZM355.83,336.13c3.79.03,6.93-3.05,6.92-6.79-.01-3.7-3.22-6.82-6.97-6.78-3.6.04-6.7,3.08-6.79,6.65-.09,3.64,3.13,6.9,6.84,6.93Z"/>
      <path class="cls-1" d="M314.28,338.2c-5.12-.06-8.77-3.73-8.78-8.83,0-5.15,3.93-9.06,9.05-8.98,5.14.08,8.9,4.04,8.77,9.24-.12,5.06-3.88,8.63-9.04,8.57ZM314.31,336.13c3.8.05,6.93-3,6.96-6.76.02-3.61-2.96-6.73-6.56-6.85-3.65-.12-7.05,3.02-7.19,6.64-.14,3.62,3.08,6.93,6.79,6.97Z"/>
      <path class="cls-1" d="M471.47,338.2c-5.16.04-8.89-3.54-8.99-8.62-.1-5.18,3.71-9.14,8.83-9.19,5.13-.05,9.01,3.85,8.98,9.02-.03,5.1-3.69,8.75-8.82,8.78ZM471.43,336.13c3.78-.02,6.88-3.15,6.81-6.9-.06-3.63-3.09-6.65-6.71-6.7-3.65-.05-7,3.18-7.05,6.78-.04,3.63,3.22,6.84,6.94,6.83Z"/>
      <path class="cls-1" d="M369.31,329.07c0-2.23-.02-4.45.01-6.67.01-.65-.12-2.03.81-1.57,2.09,1.03,3.82-.38,5.74-.32,4.24.14,6.53,2.07,6.78,6.33.19,3.17.07,6.35.07,9.53,0,.7.18,1.56-.98,1.6-1.2.03-1-.86-1-1.55-.03-2.86.08-5.73-.06-8.58-.18-3.6-1.73-5.24-4.64-5.23-2.87.01-4.54,1.76-4.69,5.24-.13,2.85-.03,5.72-.05,8.58,0,.7.17,1.57-1.02,1.54-1.19-.03-.95-.91-.96-1.59-.02-2.44,0-4.87-.01-7.31Z"/>
      <path class="cls-1" d="M496.95,327.21c0,1.38.04,2.76-.01,4.14-.19,4.61-2.4,6.9-6.56,6.89-4.06-.01-6.15-2.14-6.33-6.68-.12-3.07-.05-6.16-.04-9.24,0-.72-.14-1.59,1-1.58,1.11,0,1.03.84,1.03,1.59.01,3.08-.01,6.16.05,9.24.05,2.67,1.13,4.5,4.12,4.58,2.86.08,4.47-1.29,4.67-4.43.2-3.07.06-6.16.11-9.23.01-.77-.3-1.85,1.12-1.74,1.18.09.82,1.04.84,1.69.05,1.59.02,3.19.01,4.78Z"/>
      <path class="cls-1" d="M413.7,338.23c-2.55-.02-4.36-.73-5.65-2.51-.37-.51-.85-1.02-.16-1.63.68-.61,1.22-.6,1.83.2.43.57,1.04,1.18,1.69,1.39,1.97.64,4.15,1.08,5.25-1.26,1.1-2.34-.58-3.45-2.5-4.26-1.36-.58-2.8-1.06-4.01-1.88-1.54-1.04-1.99-2.66-1.5-4.49.57-2.14,2.08-3.13,4.18-3.24,1.84-.09,3.61.23,4.97,1.65.34.36.12.79-.2,1.09-.39.37-.81.63-1.38.24-.8-.54-1.65-.93-2.65-.94-1.23-.02-2.4.06-2.8,1.5-.37,1.34.24,2.29,1.41,2.86,1.04.52,2.13.95,3.22,1.36,2.77,1.03,4.18,3.01,3.61,5.91-.59,2.99-2.93,3.93-5.3,4.01Z"/>
      <path class="cls-1" d="M453.54,329.27c0-2.23-.02-4.46.01-6.68,0-.59.02-1.81.33-1.65,2.62,1.31,5.33-1.66,7.88.28.56.43,1.04.77.63,1.5-.36.67-.88.61-1.6.47-3.49-.7-5.06.49-5.22,4.11-.13,2.96-.01,5.94-.05,8.91,0,.77.3,1.85-1.12,1.75-1.18-.09-.84-1.02-.85-1.68-.04-2.33-.02-4.67-.02-7Z"/>
      <path class="cls-2" d="M504.35,128.63c-.1-25.3,20.42-45.96,45.88-46.18,25.17-.22,46.09,20.52,46.25,45.84.16,25.4-20.64,46.32-46.07,46.34-25.31.02-45.95-20.59-46.05-46Z"/>
      <circle class="cls-1" cx="661.78" cy="34.93" r="29.37"/>
    </g>
  </g>
</svg>