<svg width="24" height="24" viewBox="0 0 24 24" fill="none" xmlns="http://www.w3.org/2000/svg">
<path fill-rule="evenodd" clip-rule="evenodd" d="M14.7333 0.944344L21.6384 5.77551C22.957 6.69859 24 8.6886 24 10.307V18.4349C24 21.4918 21.5185 23.9733 18.4615 23.9733H5.53846C2.48152 23.9733 0 21.4798 0 18.4229V10.1511C0 8.64065 0.947053 6.72257 2.14585 5.7875L8.15185 1.10019C9.96204 -0.302409 12.8511 -0.374337 14.7333 0.944344ZM10.3917 10.7866C9.28709 10.7866 8.39166 11.682 8.39166 12.7866V18.377C8.39166 19.4816 9.28709 20.377 10.3917 20.377H13.5845C14.689 20.377 15.5845 19.4816 15.5845 18.377V12.7866C15.5845 11.682 14.689 10.7866 13.5845 10.7866H10.3917Z" fill="white"/>
</svg>
