<?xml version="1.0" encoding="UTF-8"?>
<svg id="Layer_2" data-name="Layer 2" xmlns="http://www.w3.org/2000/svg" viewBox="0 0 27.46 28.31">
  <defs>
    <style>
      .cls-1 {
        fill: #fff;
      }
    </style>
  </defs>
  <g id="Layer_1-2" data-name="Layer 1">
    <path class="cls-1" d="M19.7.68L6.6,5.18c-8.8,3-8.8,8,0,11l3.9,1.3,1.3,4c2.9,9.1,7.7,9.1,10.7,0l4.4-13.5c1.9-6.1-1.2-9.4-7.1-7.4l-.1.1ZM20.2,8.68l-5.5,5.7c-.2.2-.5.3-.8.3s-.6-.1-.8-.3c-.4-.4-.4-1.2,0-1.6l5.5-5.7c.4-.4,1.1-.4,1.5,0,.4.4.4,1.2,0,1.6h.1Z"/>
  </g>
</svg>